<svg xmlns="http://www.w3.org/2000/svg" width="1400" height="900" viewBox="0 0 1400 900">
          <defs>
            <marker id="arrow" markerWidth="10" markerHeight="10" refX="8" refY="3" orient="auto">
              <path d="M0,0 L0,6 L9,3 z" fill="#1F2937"/>
            </marker>
            <style>
              text {
                font-family: Segoe UI, Arial, sans-serif;
                font-size: 16px;
                fill: #0F172A;
                white-space: pre;
              }
              .title {
                font-size: 26px;
                font-weight: 700;
              }
              .small {
                font-size: 14px;
              }
            </style>
          </defs>
          <rect width="100%" height="100%" fill="#F8FAFC"/>

        <text x="60" y="70" class="title">Projektstrukturplan</text>
        <rect x="520" y="110" width="360" height="70" rx="14" fill="#DCEBFF" stroke="#284B63" stroke-width="2"/>
<text x="700.0" y="145.0" text-anchor="middle" dominant-baseline="middle">Sorterino 1.0</text><line x1="700" y1="180" x2="250" y2="260" stroke="#1F2937" stroke-width="2.5" marker-end="url(#arrow)"/><line x1="700" y1="180" x2="520" y2="260" stroke="#1F2937" stroke-width="2.5" marker-end="url(#arrow)"/><line x1="700" y1="180" x2="790" y2="260" stroke="#1F2937" stroke-width="2.5" marker-end="url(#arrow)"/><line x1="700" y1="180" x2="1060" y2="260" stroke="#1F2937" stroke-width="2.5" marker-end="url(#arrow)"/><rect x="120" y="260" width="260" height="140" rx="14" fill="#FFE3D3" stroke="#284B63" stroke-width="2"/>
        <text x="250.0" y="330.0" text-anchor="middle" dominant-baseline="middle">1 Analyse
- Ist-Aufnahme
- Anforderungen
- Zieldefinition</text><rect x="390" y="260" width="260" height="140" rx="14" fill="#FDE68A" stroke="#284B63" stroke-width="2"/>
        <text x="520.0" y="330.0" text-anchor="middle" dominant-baseline="middle">2 Architektur
- Variantenvergleich
- Zielarchitektur
- GUI-Konzept</text><rect x="660" y="260" width="260" height="140" rx="14" fill="#DFF3E4" stroke="#284B63" stroke-width="2"/>
        <text x="790.0" y="330.0" text-anchor="middle" dominant-baseline="middle">3 Implementierung
- Pipeline
- OCR / IMAP
- Routing / GUI</text><rect x="930" y="260" width="260" height="140" rx="14" fill="#E9D5FF" stroke="#284B63" stroke-width="2"/>
        <text x="1060.0" y="330.0" text-anchor="middle" dominant-baseline="middle">4 QS & Übergabe
- Tests
- Installer
- Einweisung / Abnahme</text><line x1="250" y1="400" x2="170" y2="500" stroke="#1F2937" stroke-width="2.5" marker-end="url(#arrow)"/><line x1="250" y1="400" x2="330" y2="500" stroke="#1F2937" stroke-width="2.5" marker-end="url(#arrow)"/><line x1="520" y1="400" x2="440" y2="500" stroke="#1F2937" stroke-width="2.5" marker-end="url(#arrow)"/><line x1="520" y1="400" x2="600" y2="500" stroke="#1F2937" stroke-width="2.5" marker-end="url(#arrow)"/><line x1="790" y1="400" x2="710" y2="500" stroke="#1F2937" stroke-width="2.5" marker-end="url(#arrow)"/><line x1="790" y1="400" x2="870" y2="500" stroke="#1F2937" stroke-width="2.5" marker-end="url(#arrow)"/><line x1="1060" y1="400" x2="980" y2="500" stroke="#1F2937" stroke-width="2.5" marker-end="url(#arrow)"/><line x1="1060" y1="400" x2="1140" y2="500" stroke="#1F2937" stroke-width="2.5" marker-end="url(#arrow)"/><rect x="80" y="500" width="180" height="110" rx="14" fill="#FFF7ED" stroke="#284B63" stroke-width="2"/>
        <text x="170.0" y="555.0" text-anchor="middle" dominant-baseline="middle">1.1 Interview
1.2 Ist-Prozess</text><rect x="280" y="500" width="180" height="110" rx="14" fill="#FFF7ED" stroke="#284B63" stroke-width="2"/>
        <text x="370.0" y="555.0" text-anchor="middle" dominant-baseline="middle">1.3 Soll-Prozess
1.4 Antragabgleich</text><rect x="350" y="500" width="180" height="110" rx="14" fill="#FEF3C7" stroke="#284B63" stroke-width="2"/>
        <text x="440.0" y="555.0" text-anchor="middle" dominant-baseline="middle">2.1 Architektur
2.2 Datenfluss</text><rect x="550" y="500" width="180" height="110" rx="14" fill="#FEF3C7" stroke="#284B63" stroke-width="2"/>
        <text x="640.0" y="555.0" text-anchor="middle" dominant-baseline="middle">2.3 PSP / Gantt
2.4 Mockup</text><rect x="620" y="500" width="180" height="110" rx="14" fill="#ECFCCB" stroke="#284B63" stroke-width="2"/>
        <text x="710.0" y="555.0" text-anchor="middle" dominant-baseline="middle">3.1 Config / Runtime
3.2 Übernahme</text><rect x="820" y="500" width="180" height="110" rx="14" fill="#ECFCCB" stroke="#284B63" stroke-width="2"/>
        <text x="910.0" y="555.0" text-anchor="middle" dominant-baseline="middle">3.3 Analyse / OCR
3.4 Ablage</text><rect x="890" y="500" width="180" height="110" rx="14" fill="#F3E8FF" stroke="#284B63" stroke-width="2"/>
        <text x="980.0" y="555.0" text-anchor="middle" dominant-baseline="middle">4.1 Tests
4.2 Installer</text><rect x="1090" y="500" width="180" height="110" rx="14" fill="#F3E8FF" stroke="#284B63" stroke-width="2"/>
        <text x="1180.0" y="555.0" text-anchor="middle" dominant-baseline="middle">4.3 Doku
4.4 Abnahme</text>
        </svg>
